<svg xmlns="http://www.w3.org/2000/svg" viewBox="0 0 200 40" fill="none">
  <path d="M10 8h12c8 0 14 5 14 12s-6 12-14 12H10V8zm6 5v14h6c4 0 8-3 8-7s-4-7-8-7h-6z" fill="currentColor"/>
  <path d="M44 8h12c8 0 14 5 14 12s-6 12-14 12H44V8zm6 5v14h6c4 0 8-3 8-7s-4-7-8-7h-6z" fill="currentColor"/>
  <circle cx="80" cy="20" r="3" fill="#D4AF37"/>
  <text x="92" y="26" font-family="system-ui, sans-serif" font-size="14" font-weight="500" letter-spacing="0.5" fill="currentColor">DURAN DOĞAN</text>
</svg>
